<?xml version="1.0" encoding="UTF-8"?>
<svg id="Layer_2" xmlns="http://www.w3.org/2000/svg" viewBox="0 0 676.4 676.4">
  <defs>
    <style>
      .cls-1 {
        fill: #192519;
      }

      .cls-2 {
        fill: #a6cae7;
      }
    </style>
  </defs>
  <g id="Layer_1-2" data-name="Layer_1">
    <rect class="cls-2" y="0" width="676.4" height="676.4" rx="162.21" ry="162.21"/>
    <g>
      <path class="cls-1" d="M314.95,556.25c-.8-1.92-.09-4.56,1.66-7.82,1.53-2.87,3.93-6.32,5.92-9.32,11.27-16.56,18.08-35.92,21.08-55.81,3.65-24.44,1.76-50.62-7.4-73.2-10.69-25.98-30.38-49.31-55.45-62.41-27.9-14.61-61.43-9.32-90.32-21.4-13.18-5.08-25.55-11.8-36.37-20.62-30.05-24.86-46.71-67.61-36.82-105.55,9.8-40.51,41.58-75.49,83.61-82.24,14.66-2.77,30.04-2.88,44.8-2.94,36.61-.07,73.3.04,109.87.09,4.51.27,15.03-.64,17.39,3.07,1.56,4-9.98,12.85-13.26,17.01-42.92,47.3-32.99,118.39,9.66,162.36,26.13,28.09,46.56,41.24,84.87,47.53,8.95,1.67,18.04,3.04,26.86,5.17,22.9,5.06,42.69,18.73,57.32,36.82,23.15,27.22,29.35,64.31,18.31,98.46-9.44,31.84-32.05,57.08-64.18,68.26-26.36,9.84-54.81,7.39-82.3,7.57-26.25-.12-52.53-.3-78.76-.54-5.2-.32-13.87.25-16.45-4.45l-.03-.08Z"/>
      <path class="cls-1" d="M115.03,462.74c-.15-54.08,43.56-98.06,97.61-98.23,54.01-.17,98.15,43.58,98.43,97.54.27,54.22-43.67,98.33-98,98.37-54.24.04-97.89-43.44-98.04-97.68Z"/>
      <path class="cls-1" d="M463.5,310.85c-53.81-.11-97.82-44.03-97.79-97.61.03-54.7,43.81-98.32,98.59-98.23,53.83.09,97.43,43.82,97.45,97.77.02,54.37-43.87,98.18-98.25,98.08Z"/>
    </g>
  </g>
</svg>